<svg width="32" height="32" viewBox="0 0 32 32" fill="none" xmlns="http://www.w3.org/2000/svg">
<rect width="32" height="32" rx="16" fill="#1E1B4B"/>
<path d="M8.77698 15.676C8.77698 19.4789 11.8727 22.5746 15.6756 22.5746C19.4786 22.5746 22.5743 19.4789 22.5743 15.676C22.5743 11.8731 19.4786 8.77734 15.6756 8.77734C11.8727 8.77734 8.77698 11.8731 8.77698 15.676ZM10.25 15.676C10.25 12.6874 12.6809 10.2503 15.6756 10.2503C18.6703 10.2503 21.1013 12.6874 21.1013 15.676C21.1013 18.6646 18.6703 21.1017 15.6756 21.1017C12.6809 21.1017 10.25 18.6646 10.25 15.676Z" fill="white" stroke="white" stroke-width="0.5"/>
<path d="M22.6886 23.4378C22.4982 23.4378 22.3078 23.3677 22.1574 23.2174L20.153 21.2145C19.8624 20.924 19.8624 20.4433 20.153 20.1529C20.4437 19.8625 20.9247 19.8625 21.2154 20.1529L23.2198 22.1559C23.5104 22.4463 23.5104 22.927 23.2198 23.2174C23.0695 23.3677 22.879 23.4378 22.6886 23.4378Z" fill="white"/>
<path d="M12.1967 19.8032C11.6193 19.2256 11.2231 18.2157 11.0268 17.2974C10.8302 18.2157 10.4354 19.2255 9.85736 19.8035C9.27935 20.3808 8.26954 20.7766 7.35132 20.9732C8.26985 21.1698 9.27935 21.5649 9.85736 22.1429C10.4354 22.7205 10.8309 23.7304 11.0275 24.6487C11.2237 23.7301 11.6193 22.7205 12.1969 22.1426C12.7746 21.5649 13.7846 21.1694 14.7027 20.9725C13.7846 20.7763 12.7747 20.3808 12.1967 19.8032Z" fill="#F1CB00"/>
<path d="M18.4178 7.96034C18.0782 7.62057 17.8452 7.0265 17.7297 6.48633C17.614 7.0265 17.3818 7.62055 17.0418 7.96052C16.7018 8.30013 16.1078 8.53294 15.5676 8.64859C16.1079 8.76423 16.7018 8.99667 17.0418 9.33664C17.3818 9.67643 17.6144 10.2705 17.7301 10.8107C17.8455 10.2703 18.0782 9.67643 18.418 9.33646C18.7578 8.99667 19.3519 8.76402 19.892 8.6482C19.3519 8.53275 18.7578 8.30013 18.4178 7.96034Z" fill="#F1CB00"/>
<path d="M25.1991 18.9087C24.9274 18.6369 24.741 18.1616 24.6486 17.7295C24.5561 18.1616 24.3703 18.6369 24.0983 18.9088C23.8263 19.1805 23.351 19.3668 22.9189 19.4593C23.3512 19.5518 23.8263 19.7378 24.0983 20.0097C24.3703 20.2816 24.5564 20.7568 24.6489 21.189C24.7413 20.7566 24.9274 20.2816 25.1992 20.0096C25.4711 19.7378 25.9464 19.5516 26.3784 19.459C25.9464 19.3666 25.4711 19.1805 25.1991 18.9087Z" fill="white"/>
<path d="M9.06144 9.10071C8.85766 8.89685 8.71784 8.54041 8.64856 8.21631C8.57916 8.54041 8.43981 8.89684 8.2358 9.10082C8.0318 9.30459 7.6754 9.44427 7.35132 9.51367C7.67551 9.58305 8.0318 9.72251 8.2358 9.9265C8.43981 10.1304 8.57941 10.4868 8.6488 10.8109C8.71806 10.4867 8.85766 10.1304 9.06154 9.92639C9.26543 9.72251 9.62189 9.58292 9.94591 9.51343C9.6219 9.44416 9.26544 9.30459 9.06144 9.10071Z" fill="white"/>
</svg>
